<svg xmlns="http://www.w3.org/2000/svg" xmlns:xlink="http://www.w3.org/1999/xlink" width="98.392" height="68.945" viewBox="0 0 98.392 68.945">
  <defs>
    <clipPath id="clip-path">
      <rect id="Rectangle_2277" data-name="Rectangle 2277" width="98.392" height="68.945" fill="#fff"/>
    </clipPath>
  </defs>
  <g id="Group_11874" data-name="Group 11874" transform="translate(0 0)">
    <g id="Group_11873" data-name="Group 11873" transform="translate(0 0)" clip-path="url(#clip-path)">
      <path id="Path_4626" data-name="Path 4626" d="M64.147,45.465q-4.1-1.18-8.2-2.345t-8.206-2.347c-.532-.146-1.039-.834-1.462-1.915,4.182-2.995,7.252-8.227,7.252-15.973V17.7c0-11.609-8.736-16.9-16.852-16.9s-16.85,5.288-16.85,16.9v5.182c0,7.734,3.059,12.96,7.23,15.957-.43,1.115-.919,1.785-1.481,1.935q-4.118,1.185-8.238,2.354Q13.252,44.3,9.17,45.465C4.342,46.859,1.259,54.244,0,67.419A.772.772,0,0,0,.7,68.26c.024,0,.05,0,.074,0a.773.773,0,0,0,.768-.7C2.694,55.437,5.555,48.113,9.6,46.948q4.076-1.171,8.158-2.332,4.121-1.174,8.227-2.352a3.965,3.965,0,0,0,2.4-2.559,16.523,16.523,0,0,0,16.577,0,3.954,3.954,0,0,0,2.356,2.551q4.1,1.183,8.2,2.347t8.2,2.343c4.041,1.165,6.9,8.489,8.059,20.617a.771.771,0,0,0,.766.7c.024,0,.05,0,.074,0a.774.774,0,0,0,.7-.842c-1.255-13.175-4.339-20.559-9.166-21.953M21.364,22.886V17.7c0-10.549,7.935-15.355,15.309-15.355S51.982,7.154,51.982,17.7v5.182c0,7.466-3.059,12.4-7.143,15.08l-.017.011a14.928,14.928,0,0,1-8.149,2.415c-7.374,0-15.309-5.478-15.309-17.506" transform="translate(0 0.683)" fill="#fff"/>
      <path id="Path_4627" data-name="Path 4627" d="M62.984,30.832a.773.773,0,0,0,.768.7c.024,0,.048,0,.07,0a.773.773,0,0,0,.7-.838c-.511-5.635-1.892-8.808-4.1-9.432-2.23-.648-4.492-1.3-6.752-1.944a.694.694,0,0,1-.2-.262,8.269,8.269,0,0,0,2.9-6.678V10.249a7.4,7.4,0,1,0-14.8,0v2.127a8.578,8.578,0,0,0,2.293,6.2,7.148,7.148,0,0,0,.607.5.816.816,0,0,1-.174.236l-6.777,1.944c-2.193.618-3.534,3.7-4.1,9.427a.771.771,0,0,0,.692.842.542.542,0,0,0,.076.006.771.771,0,0,0,.766-.7c.644-6.491,2.147-7.858,2.989-8.094l6.8-1.951a1.883,1.883,0,0,0,1.021-.881,6.935,6.935,0,0,0,6.419-.02,1.85,1.85,0,0,0,1.065.906c2.26.648,4.52,1.3,6.753,1.946,1.447.408,2.563,3.432,2.983,8.088M43.115,12.375V10.249a5.617,5.617,0,0,1,5.856-5.869,6.042,6.042,0,0,1,4.043,1.464,5.7,5.7,0,0,1,1.813,4.405v2.127c0,4.652-3.035,6.772-5.856,6.772s-5.856-2.119-5.856-6.772" transform="translate(28.278 2.399)" fill="#fff"/>
      <path id="Path_4628" data-name="Path 4628" d="M31.178,29H42.447a.772.772,0,1,0,0-1.543h-10.5V16.879a.772.772,0,0,0-1.543,0V28.231a.771.771,0,0,0,.772.772" transform="translate(25.73 13.63)" fill="#fff"/>
      <path id="Path_4629" data-name="Path 4629" d="M58.4,16.107a.771.771,0,0,0-.772.772V27.459h-10.5a.772.772,0,0,0,0,1.543H58.4a.771.771,0,0,0,.772-.772V16.879a.771.771,0,0,0-.772-.772" transform="translate(39.226 13.63)" fill="#fff"/>
      <path id="Path_4630" data-name="Path 4630" d="M58.4,0H47.124a.772.772,0,0,0,0,1.543h10.5V12.124a.772.772,0,0,0,1.543,0V.772A.771.771,0,0,0,58.4,0" transform="translate(39.226 0)" fill="#fff"/>
      <path id="Path_4631" data-name="Path 4631" d="M31.178,12.894a.771.771,0,0,0,.772-.772V1.542h10.5a.771.771,0,1,0,0-1.542H31.178a.771.771,0,0,0-.772.77V12.122a.771.771,0,0,0,.772.772" transform="translate(25.73 0)" fill="#fff"/>
    </g>
  </g>
</svg>
