<svg id="_50-calendar" data-name="50-calendar" xmlns="http://www.w3.org/2000/svg" width="68.945" height="68.945" viewBox="0 0 68.945 68.945">
  <path id="Path_4606" data-name="Path 4606" d="M206.494,105.183A3.813,3.813,0,1,0,210.308,109,3.818,3.818,0,0,0,206.494,105.183Zm0,5.607A1.793,1.793,0,1,1,208.288,109,1.8,1.8,0,0,1,206.494,110.79Z" transform="translate(-175.388 -91.019)" fill="#fff"/>
  <path id="Path_4607" data-name="Path 4607" d="M99.456,139.721H92.617a1.01,1.01,0,1,0,0,2.02h6.839a1.01,1.01,0,0,0,0-2.02Z" transform="translate(-79.271 -120.906)" fill="#fff"/>
  <path id="Path_4608" data-name="Path 4608" d="M304.607,141.251a1.01,1.01,0,0,0,1.01,1.01h6.839a1.01,1.01,0,0,0,0-2.02h-6.839A1.01,1.01,0,0,0,304.607,141.251Z" transform="translate(-263.589 -121.356)" fill="#fff"/>
  <path id="Path_4609" data-name="Path 4609" d="M67.462,48.495a1.01,1.01,0,1,0-1.807.9,11.992,11.992,0,0,1,1.271,5.408,12.119,12.119,0,1,1-3.889-8.9,1.01,1.01,0,1,0,1.372-1.482,14.171,14.171,0,0,0-2.2-1.668V8.936a5.055,5.055,0,0,0-5.05-5.05H48.746V3.3a3.3,3.3,0,1,0-6.6,0v.587H20.064V3.3a3.3,3.3,0,1,0-6.6,0v.587H5.05A5.055,5.055,0,0,0,0,8.936v7.223a1.01,1.01,0,1,0,2.02,0V8.936a3.033,3.033,0,0,1,3.03-3.03h8.416V9.283H7.754a2.527,2.527,0,0,0-2.524,2.524V56.743a2.527,2.527,0,0,0,2.524,2.524H18.179a1.01,1.01,0,0,0,0-2.02H7.754a.5.5,0,0,1-.5-.5V26.708H54.962v3.76a1.01,1.01,0,1,0,2.02,0V11.807a2.527,2.527,0,0,0-2.524-2.524H48.746V5.906h8.416a3.033,3.033,0,0,1,3.03,3.03V41.73a14.074,14.074,0,0,0-3.211-.9V35.218a1.01,1.01,0,1,0-2.02,0v5.451a15.057,15.057,0,0,0-2.176.143v-.818A1.685,1.685,0,0,0,51.1,38.31h-4.04a1.685,1.685,0,0,0-1.683,1.683v4.283A14.236,14.236,0,0,0,42.526,47.8H38.041a1.685,1.685,0,0,0-1.683,1.683v4.04a1.685,1.685,0,0,0,1.683,1.683h2.632a14.152,14.152,0,0,0,.205,2.037H22.892a1.01,1.01,0,1,0,0,2.02h18.5a14.1,14.1,0,0,0,1.655,3.377H5.05a3.033,3.033,0,0,1-3.03-3.03V20.872a1.01,1.01,0,1,0-2.02,0V59.614a5.055,5.055,0,0,0,5.05,5.05H44.681A14.137,14.137,0,0,0,67.462,48.495ZM44.168,3.3a1.279,1.279,0,1,1,2.559,0v8.08a1.279,1.279,0,1,1-2.559,0Zm-2.02,2.607V9.283H20.064V5.906ZM15.486,3.3a1.279,1.279,0,1,1,2.559,0v8.08a1.279,1.279,0,1,1-2.559,0Zm38.972,8a.5.5,0,0,1,.5.5V24.688H7.251V11.807a.5.5,0,0,1,.5-.5h5.711v.076a3.3,3.3,0,0,0,6.6,0V11.3H42.148v.076a3.3,3.3,0,1,0,6.6,0V11.3ZM47.4,40.33h3.366v.926A14.072,14.072,0,0,0,47.4,42.767Zm-9.022,9.493h3.2a14.023,14.023,0,0,0-.814,3.366H38.378Z" fill="#fff"/>
  <path id="Path_4610" data-name="Path 4610" d="M402.02,329.76V328.01a1.01,1.01,0,1,0-2.02,0v1.751a1.01,1.01,0,1,0,2.02,0Z" transform="translate(-346.137 -282.967)" fill="#fff"/>
  <path id="Path_4611" data-name="Path 4611" d="M328.01,399a1.01,1.01,0,1,0,0,2.02h1.751a1.01,1.01,0,1,0,0-2.02Z" transform="translate(-282.967 -345.271)" fill="#fff"/>
  <path id="Path_4612" data-name="Path 4612" d="M399,460.01v1.751a1.01,1.01,0,0,0,2.02,0V460.01a1.01,1.01,0,1,0-2.02,0Z" transform="translate(-345.271 -397.192)" fill="#fff"/>
  <path id="Path_4613" data-name="Path 4613" d="M460.01,400a1.01,1.01,0,1,0,0,2.02h1.751a1.01,1.01,0,0,0,0-2.02Z" transform="translate(-397.192 -346.137)" fill="#fff"/>
  <path id="Path_4614" data-name="Path 4614" d="M369.094,357.809a1.01,1.01,0,0,0-1.428-.05L366,359.317a3.021,3.021,0,0,0-2.608-.091l-3.641-3.9a1.01,1.01,0,1,0-1.477,1.378l3.641,3.9a3.03,3.03,0,1,0,5.463.19l1.67-1.558A1.01,1.01,0,0,0,369.094,357.809Zm-4.5,5.2a1.01,1.01,0,1,1,1.01-1.01A1.011,1.011,0,0,1,364.6,363.013Z" transform="translate(-309.791 -307.197)" fill="#fff"/>
  <path id="Path_4615" data-name="Path 4615" d="M141.723,214h-4.04A1.685,1.685,0,0,0,136,215.683v4.04a1.685,1.685,0,0,0,1.683,1.683h4.04a1.685,1.685,0,0,0,1.683-1.683v-4.04A1.685,1.685,0,0,0,141.723,214Zm-.337,5.386H138.02V216.02h3.366Z" transform="translate(-117.686 -185.183)" fill="#fff"/>
  <path id="Path_4616" data-name="Path 4616" d="M208.723,214h-4.04A1.685,1.685,0,0,0,203,215.683v4.04a1.685,1.685,0,0,0,1.683,1.683h4.04a1.685,1.685,0,0,0,1.683-1.683v-4.04A1.685,1.685,0,0,0,208.723,214Zm-.337,5.386H205.02V216.02h3.366Z" transform="translate(-175.664 -185.183)" fill="#fff"/>
  <path id="Path_4617" data-name="Path 4617" d="M275.723,214h-4.04A1.685,1.685,0,0,0,270,215.683v4.04a1.685,1.685,0,0,0,1.683,1.683h4.04a1.685,1.685,0,0,0,1.683-1.683v-4.04A1.685,1.685,0,0,0,275.723,214Zm-.337,5.386H272.02V216.02h3.366Z" transform="translate(-233.642 -185.183)" fill="#fff"/>
  <path id="Path_4618" data-name="Path 4618" d="M338.683,221.406h4.04a1.685,1.685,0,0,0,1.683-1.683v-4.04A1.685,1.685,0,0,0,342.723,214h-4.04A1.685,1.685,0,0,0,337,215.683v4.04A1.685,1.685,0,0,0,338.683,221.406Zm.337-5.386h3.366v3.366H339.02Z" transform="translate(-291.62 -185.183)" fill="#fff"/>
  <path id="Path_4619" data-name="Path 4619" d="M137.683,362.406h4.04a1.685,1.685,0,0,0,1.683-1.683v-4.04A1.685,1.685,0,0,0,141.723,355h-4.04A1.685,1.685,0,0,0,136,356.683v4.04A1.685,1.685,0,0,0,137.683,362.406Zm.337-5.386h3.366v3.366H138.02Z" transform="translate(-117.686 -307.196)" fill="#fff"/>
  <path id="Path_4620" data-name="Path 4620" d="M137.683,284.5A1.685,1.685,0,0,0,136,286.183v4.04a1.685,1.685,0,0,0,1.683,1.683h4.04a1.685,1.685,0,0,0,1.683-1.683v-4.04a1.685,1.685,0,0,0-1.683-1.683Zm3.7,5.386H138.02V286.52h3.366Z" transform="translate(-117.686 -246.19)" fill="#fff"/>
  <path id="Path_4621" data-name="Path 4621" d="M208.723,355h-4.04A1.685,1.685,0,0,0,203,356.683v4.04a1.685,1.685,0,0,0,1.683,1.683h4.04a1.685,1.685,0,0,0,1.683-1.683v-4.04A1.685,1.685,0,0,0,208.723,355Zm-.337,5.386H205.02V357.02h3.366Z" transform="translate(-175.664 -307.196)" fill="#fff"/>
  <path id="Path_4622" data-name="Path 4622" d="M210.406,286.183a1.685,1.685,0,0,0-1.683-1.683h-4.04A1.685,1.685,0,0,0,203,286.183v4.04a1.685,1.685,0,0,0,1.683,1.683h4.04a1.685,1.685,0,0,0,1.683-1.683Zm-2.02,3.7H205.02V286.52h3.366Z" transform="translate(-175.664 -246.19)" fill="#fff"/>
  <path id="Path_4623" data-name="Path 4623" d="M271.683,284.5A1.685,1.685,0,0,0,270,286.183v4.04a1.685,1.685,0,0,0,1.683,1.683h4.04a1.685,1.685,0,0,0,1.683-1.683v-4.04a1.685,1.685,0,0,0-1.683-1.683Zm3.7,5.386H272.02V286.52h3.366Z" transform="translate(-233.642 -246.19)" fill="#fff"/>
  <path id="Path_4624" data-name="Path 4624" d="M74.723,355h-4.04A1.685,1.685,0,0,0,69,356.683v4.04a1.685,1.685,0,0,0,1.683,1.683h4.04a1.685,1.685,0,0,0,1.683-1.683v-4.04A1.685,1.685,0,0,0,74.723,355Zm-.337,5.386H71.02V357.02h3.366Z" transform="translate(-59.709 -307.196)" fill="#fff"/>
  <path id="Path_4625" data-name="Path 4625" d="M76.406,286.183a1.685,1.685,0,0,0-1.683-1.683h-4.04A1.685,1.685,0,0,0,69,286.183v4.04a1.685,1.685,0,0,0,1.683,1.683h4.04a1.685,1.685,0,0,0,1.683-1.683Zm-2.02,3.7H71.02V286.52h3.366Z" transform="translate(-59.709 -246.19)" fill="#fff"/>
</svg>
