<svg xmlns="http://www.w3.org/2000/svg" width="69.432" height="68.945" viewBox="0 0 69.432 68.945">
  <g id="_8-planner" data-name="8-planner" transform="translate(0 -1.795)">
    <path id="Path_4592" data-name="Path 4592" d="M64.347,5.465H55a3.84,3.84,0,0,0-7.672,0H22.106a3.84,3.84,0,0,0-7.672,0H5.085A5.091,5.091,0,0,0,0,10.55V28.809a1.017,1.017,0,1,0,2.034,0V10.55A3.055,3.055,0,0,1,5.085,7.5H14.43v3.4H7.809a2.545,2.545,0,0,0-2.542,2.542V27.4c0,.01,0,.02,0,.03s0,.02,0,.03v35.3a2.545,2.545,0,0,0,2.542,2.542H50.595a4.092,4.092,0,0,0,2.89-1.206l9.5-9.6a4.042,4.042,0,0,0,1.176-2.86V40.2a1.017,1.017,0,0,0-2.034,0V51.95h-8.7a2.623,2.623,0,0,0-2.62,2.62v8.7h-43a.508.508,0,0,1-.507-.507V28.448H43.124a1.017,1.017,0,1,0,0-2.034H7.3V13.442a.508.508,0,0,1,.507-.507h6.624a3.839,3.839,0,0,0,7.676,0H47.324a3.839,3.839,0,0,0,7.676,0h6.624a.508.508,0,0,1,.507.507V26.414H47.87a1.017,1.017,0,1,0,0,2.034H62.13v7.006a1.017,1.017,0,0,0,2.034,0V13.442A2.544,2.544,0,0,0,61.623,10.9H55V7.5h9.345A3.055,3.055,0,0,1,67.4,10.55v55.1a3.055,3.055,0,0,1-3.051,3.051H5.085a3.055,3.055,0,0,1-3.051-3.051v-32.1a1.017,1.017,0,1,0-2.034,0v32.1A5.091,5.091,0,0,0,5.085,70.74H64.347a5.091,5.091,0,0,0,5.085-5.085V10.55A5.091,5.091,0,0,0,64.347,5.465ZM53.428,53.984h7.207l-7.793,7.874V54.57A.587.587,0,0,1,53.428,53.984ZM22.111,7.5h25.21v3.4H22.111Zm-2.034,5.335a1.806,1.806,0,0,1-3.612,0v-7.2a1.806,1.806,0,1,1,3.612,0Zm32.891,0a1.806,1.806,0,1,1-3.612,0v-7.2a1.806,1.806,0,1,1,3.612,0Z" fill="#fff"/>
    <path id="Path_4593" data-name="Path 4593" d="M227.119,109.022a3.84,3.84,0,1,0,3.84-3.84A3.845,3.845,0,0,0,227.119,109.022Zm5.646,0a1.806,1.806,0,1,1-1.806-1.806A1.808,1.808,0,0,1,232.766,109.022Z" transform="translate(-196.32 -89.367)" fill="#fff"/>
    <path id="Path_4594" data-name="Path 4594" d="M92.854,139.721a1.017,1.017,0,1,0,0,2.034h9.6a1.017,1.017,0,1,0,0-2.034Z" transform="translate(-79.383 -119.222)" fill="#fff"/>
    <path id="Path_4595" data-name="Path 4595" d="M345,142.275a1.017,1.017,0,0,0,0-2.034h-9.6a1.017,1.017,0,0,0,0,2.034Z" transform="translate(-289.034 -119.671)" fill="#fff"/>
    <path id="Path_4596" data-name="Path 4596" d="M112.193,223.443a1.7,1.7,0,0,0-1.7-1.7h-5a1.7,1.7,0,0,0-1.7,1.7v5a1.7,1.7,0,0,0,1.7,1.7h5a1.7,1.7,0,0,0,1.7-1.7Zm-3.444.339-2.908,2.908v-2.908Zm-1.441,4.318,2.852-2.852V228.1Z" transform="translate(-89.73 -190.125)" fill="#fff"/>
    <path id="Path_4597" data-name="Path 4597" d="M112.193,297.641a1.7,1.7,0,0,0-1.7-1.7h-5a1.7,1.7,0,0,0-1.7,1.7v5a1.7,1.7,0,0,0,1.7,1.7h5a1.7,1.7,0,0,0,1.7-1.7Zm-2.034,4.657h-4.318V297.98h4.318Z" transform="translate(-89.73 -254.261)" fill="#fff"/>
    <path id="Path_4598" data-name="Path 4598" d="M110.5,370.145h-5a1.7,1.7,0,0,0-1.7,1.7v5a1.7,1.7,0,0,0,1.7,1.7h5a1.7,1.7,0,0,0,1.7-1.7v-5A1.7,1.7,0,0,0,110.5,370.145Zm-.339,6.352h-4.318v-4.318h4.318Z" transform="translate(-89.73 -318.398)" fill="#fff"/>
    <path id="Path_4599" data-name="Path 4599" d="M217.824,230.6h-24a1.017,1.017,0,1,0,0,2.034h24a1.017,1.017,0,0,0,0-2.034Z" transform="translate(-166.662 -197.773)" fill="#fff"/>
    <path id="Path_4600" data-name="Path 4600" d="M193.826,261.776h14.116a1.017,1.017,0,1,0,0-2.034H193.826a1.017,1.017,0,1,0,0,2.034Z" transform="translate(-166.662 -222.967)" fill="#fff"/>
    <path id="Path_4601" data-name="Path 4601" d="M293.776,305.728a1.017,1.017,0,0,0-1.017-1.017H280.517a1.017,1.017,0,1,0,0,2.034h12.242A1.017,1.017,0,0,0,293.776,305.728Z" transform="translate(-241.597 -261.838)" fill="#fff"/>
    <path id="Path_4602" data-name="Path 4602" d="M193.826,306.745h7.058a1.017,1.017,0,1,0,0-2.034h-7.058a1.017,1.017,0,0,0,0,2.034Z" transform="translate(-166.662 -261.838)" fill="#fff"/>
    <path id="Path_4603" data-name="Path 4603" d="M193.826,335.892h14.116a1.017,1.017,0,1,0,0-2.034H193.826a1.017,1.017,0,1,0,0,2.034Z" transform="translate(-166.662 -287.032)" fill="#fff"/>
    <path id="Path_4604" data-name="Path 4604" d="M213.194,379.844a1.017,1.017,0,0,0-1.017-1.017H193.826a1.017,1.017,0,0,0,0,2.034h18.351A1.017,1.017,0,0,0,213.194,379.844Z" transform="translate(-166.662 -325.903)" fill="#fff"/>
    <path id="Path_4605" data-name="Path 4605" d="M193.826,407.974a1.017,1.017,0,1,0,0,2.034h11.293a1.017,1.017,0,1,0,0-2.034Z" transform="translate(-166.662 -351.097)" fill="#fff"/>
  </g>
</svg>
