<svg xmlns="http://www.w3.org/2000/svg" xmlns:xlink="http://www.w3.org/1999/xlink" width="119.561" height="68.945" viewBox="0 0 119.561 68.945">
  <defs>
    <clipPath id="clip-path">
      <rect id="Rectangle_2279" data-name="Rectangle 2279" width="119.561" height="68.945" fill="#fff"/>
    </clipPath>
  </defs>
  <g id="Group_11876" data-name="Group 11876" transform="translate(0 0)">
    <g id="Group_11875" data-name="Group 11875" transform="translate(0 0)" clip-path="url(#clip-path)">
      <path id="Path_4632" data-name="Path 4632" d="M116.009,57.028H108.23V4.957A4.923,4.923,0,0,0,103.353,0h-87.1a4.943,4.943,0,0,0-4.917,4.957V57.028H3.554A3.589,3.589,0,0,0,0,60.646v1.377a6.9,6.9,0,0,0,6.864,6.923H112.738a6.884,6.884,0,0,0,6.826-6.923V60.646a3.589,3.589,0,0,0-3.554-3.618M13.3,4.957a2.972,2.972,0,0,1,2.949-2.989h87.1a2.954,2.954,0,0,1,2.912,2.989V57.028h-3.641V7.278a1.941,1.941,0,0,0-1.956-1.968H18.9a1.941,1.941,0,0,0-1.958,1.968v49.75H13.3ZM72.867,57.028H18.906l-.014-49.75h81.766v49.75Zm-1.13,1.965a3.31,3.31,0,0,1-3.154,2.361h-17.6a3.314,3.314,0,0,1-3.154-2.361ZM117.6,62.023a4.912,4.912,0,0,1-4.858,4.955H6.864a4.931,4.931,0,0,1-4.9-4.955V60.646a1.642,1.642,0,0,1,1.586-1.652h42.26a5.278,5.278,0,0,0,5.167,4.326h17.6a5.278,5.278,0,0,0,5.167-4.326h42.26a1.644,1.644,0,0,1,1.586,1.652Z" transform="translate(0 0.001)" fill="#fff"/>
      <path id="Path_4633" data-name="Path 4633" d="M38.686,4.879H30.977a.983.983,0,1,0,0,1.965H37.7v6.8a.984.984,0,1,0,1.968,0V5.863a.983.983,0,0,0-.984-.984" transform="translate(40.605 6.606)" fill="#fff"/>
      <path id="Path_4634" data-name="Path 4634" d="M17.692,14.633a.983.983,0,0,0,.984-.984v-6.8h6.687a.984.984,0,0,0,0-1.968H17.692a.983.983,0,0,0-.984.984v7.786a.983.983,0,0,0,.984.984" transform="translate(22.619 6.606)" fill="#fff"/>
      <path id="Path_4635" data-name="Path 4635" d="M25.363,26.061H18.676V19.3a.984.984,0,0,0-1.968,0v7.749a.981.981,0,0,0,.984.982h7.671a.983.983,0,1,0,0-1.965" transform="translate(22.619 24.792)" fill="#fff"/>
      <path id="Path_4636" data-name="Path 4636" d="M38.686,18.313a.983.983,0,0,0-.984.984v6.765H30.977a.983.983,0,1,0,0,1.965h7.709a.983.983,0,0,0,.984-.984V19.3a.983.983,0,0,0-.984-.984" transform="translate(40.605 24.793)" fill="#fff"/>
      <path id="Path_4637" data-name="Path 4637" d="M50.192,22.829a15.742,15.742,0,1,0-15.74,15.888,15.854,15.854,0,0,0,15.74-15.888M34.452,36.752A13.943,13.943,0,1,1,48.227,22.829,13.866,13.866,0,0,1,34.452,36.752" transform="translate(25.33 9.344)" fill="#fff"/>
      <path id="Path_4638" data-name="Path 4638" d="M36.429,17.027a.981.981,0,0,0-.982.984,5.657,5.657,0,1,1-6.9-5.609.983.983,0,1,0-.433-1.918,7.684,7.684,0,1,0,9.3,7.527.982.982,0,0,0-.984-.984" transform="translate(30.01 14.162)" fill="#fff"/>
      <path id="Path_4639" data-name="Path 4639" d="M29.655,9.507a4.562,4.562,0,1,0,4.529,4.562,4.549,4.549,0,0,0-4.529-4.562m0,7.158a2.6,2.6,0,1,1,2.561-2.6,2.581,2.581,0,0,1-2.561,2.6" transform="translate(34.02 12.872)" fill="#fff"/>
    </g>
  </g>
</svg>
